<?xml version="1.0" encoding="UTF-8" standalone="no"?>
<svg
   xmlns:sketch="http://www.bohemiancoding.com/sketch/ns"
   xmlns:dc="http://purl.org/dc/elements/1.1/"
   xmlns:cc="http://creativecommons.org/ns#"
   xmlns:rdf="http://www.w3.org/1999/02/22-rdf-syntax-ns#"
   xmlns:svg="http://www.w3.org/2000/svg"
   xmlns="http://www.w3.org/2000/svg"
   xmlns:sodipodi="http://sodipodi.sourceforge.net/DTD/sodipodi-0.dtd"
   xmlns:inkscape="http://www.inkscape.org/namespaces/inkscape"
   width="50px"
   height="50px"
   viewBox="0 0 50 50"
   version="1.1"
   id="svg2"
   inkscape:version="0.48.3.1 r9886"
   sodipodi:docname="facebook.svg">
  <metadata
     id="metadata15">
    <rdf:RDF>
      <cc:Work
         rdf:about="">
        <dc:format>image/svg+xml</dc:format>
        <dc:type
           rdf:resource="http://purl.org/dc/dcmitype/StillImage" />
        <dc:title>Facebook</dc:title>
      </cc:Work>
    </rdf:RDF>
  </metadata>
  <sodipodi:namedview
     pagecolor="#ffffff"
     bordercolor="#666666"
     borderopacity="1"
     objecttolerance="10"
     gridtolerance="10"
     guidetolerance="10"
     inkscape:pageopacity="0"
     inkscape:pageshadow="2"
     inkscape:window-width="1366"
     inkscape:window-height="740"
     id="namedview13"
     showgrid="false"
     inkscape:zoom="4"
     inkscape:cx="34.435897"
     inkscape:cy="28.535345"
     inkscape:window-x="0"
     inkscape:window-y="0"
     inkscape:window-maximized="1"
     inkscape:current-layer="svg2" />
  <title
     id="title4">Facebook</title>
  <description
     id="description6">Created with Sketch (http://www.bohemiancoding.com/sketch)</description>
  <defs
     id="defs8">
    <filter
       id="filter3004"
       inkscape:label="Invert"
       x="0"
       y="0"
       width="1"
       height="1"
       inkscape:menu="Color"
       inkscape:menu-tooltip="Invert colors"
       color-interpolation-filters="sRGB">
      <feColorMatrix
         id="feColorMatrix3006"
         type="saturate"
         values="1"
         result="fbSourceGraphic" />
      <feColorMatrix
         id="feColorMatrix3008"
         in="fbSourceGraphic"
         values="-1 0 0 0 1 0 -1 0 0 1 0 0 -1 0 1 0 0 0 1 0 " />
    </filter>
  </defs>
  <g
     id="Page-1"
     stroke="none"
     stroke-width="1"
     fill="none"
     fill-rule="evenodd"
     sketch:type="MSPage"
     style="filter:url(#filter3004)">
    <g
       id="Facebook"
       sketch:type="MSArtboardGroup"
       fill="#000000">
      <path
         d="M25,50 C38.8071194,50 50,38.8071194 50,25 C50,11.1928806 38.8071194,0 25,0 C11.1928806,0 0,11.1928806 0,25 C0,38.8071194 11.1928806,50 25,50 Z M25,47 C37.1502651,47 47,37.1502651 47,25 C47,12.8497349 37.1502651,3 25,3 C12.8497349,3 3,12.8497349 3,25 C3,37.1502651 12.8497349,47 25,47 Z M26.8145197,36 L26.8145197,24.998712 L30.0687449,24.998712 L30.5,21.2076072 L26.8145197,21.2076072 L26.8200486,19.3101227 C26.8200486,18.3213442 26.9207209,17.7915341 28.4425538,17.7915341 L30.4769629,17.7915341 L30.4769629,14 L27.2222769,14 C23.3128757,14 21.9368678,15.8390937 21.9368678,18.9318709 L21.9368678,21.2080366 L19.5,21.2080366 L19.5,24.9991413 L21.9368678,24.9991413 L21.9368678,36 L26.8145197,36 Z M26.8145197,36"
         id="Oval-1"
         sketch:type="MSShapeGroup" />
    </g>
  </g>
</svg>
