<?xml version="1.0" encoding="UTF-8" standalone="no"?>
<svg
   xmlns:dc="http://purl.org/dc/elements/1.1/"
   xmlns:cc="http://creativecommons.org/ns#"
   xmlns:rdf="http://www.w3.org/1999/02/22-rdf-syntax-ns#"
   xmlns:svg="http://www.w3.org/2000/svg"
   xmlns="http://www.w3.org/2000/svg"
   xmlns:sodipodi="http://sodipodi.sourceforge.net/DTD/sodipodi-0.dtd"
   xmlns:inkscape="http://www.inkscape.org/namespaces/inkscape"
   height="1000"
   width="1000"
   id="svg3049"
   version="1.1"
   inkscape:version="0.48.3.1 r9886"
   sodipodi:docname="github.svg">
  <metadata
     id="metadata3057">
    <rdf:RDF>
      <cc:Work
         rdf:about="">
        <dc:format>image/svg+xml</dc:format>
        <dc:type
           rdf:resource="http://purl.org/dc/dcmitype/StillImage" />
        <dc:title></dc:title>
      </cc:Work>
    </rdf:RDF>
  </metadata>
  <defs
     id="defs3055">
    <filter
       id="filter3059"
       inkscape:label="Invert"
       x="0"
       y="0"
       width="1"
       height="1"
       inkscape:menu="Color"
       inkscape:menu-tooltip="Invert colors"
       color-interpolation-filters="sRGB">
      <feColorMatrix
         id="feColorMatrix3061"
         type="saturate"
         values="1"
         result="fbSourceGraphic" />
      <feColorMatrix
         id="feColorMatrix3063"
         in="fbSourceGraphic"
         values="-1 0 0 0 1 0 -1 0 0 1 0 0 -1 0 1 0 0 0 1 0 " />
    </filter>
  </defs>
  <sodipodi:namedview
     pagecolor="#ffffff"
     bordercolor="#666666"
     borderopacity="1"
     objecttolerance="10"
     gridtolerance="10"
     guidetolerance="10"
     inkscape:pageopacity="0"
     inkscape:pageshadow="2"
     inkscape:window-width="640"
     inkscape:window-height="480"
     id="namedview3053"
     showgrid="false"
     inkscape:zoom="0.236"
     inkscape:cx="500"
     inkscape:cy="500"
     inkscape:window-x="0"
     inkscape:window-y="0"
     inkscape:window-maximized="0"
     inkscape:current-layer="svg3049" />
  <path
     d="M0 499.968q0 -207.018 146.475 -353.493t353.493 -146.475 353.493 146.475 146.475 353.493 -146.475 353.493 -353.493 146.475 -353.493 -146.475 -146.475 -353.493zm54.684 0q0 183.582 130.851 314.433t314.433 130.851 314.433 -130.851 130.851 -314.433 -130.851 -314.433 -314.433 -130.851 -314.433 130.851 -130.851 314.433zm140.616 107.415q-3.906 -3.906 0 -7.812 7.812 -7.812 19.53 -5.859t13.671 3.906q13.671 5.859 30.271 26.366t26.366 28.319q46.872 39.06 95.697 5.859 3.906 -13.671 12.694 -23.436t16.601 -13.671 27.342 -11.718q-64.449 -5.859 -104.486 -22.46t-63.473 -41.989q-31.248 -35.154 -38.084 -91.791t8.789 -103.509q11.718 -29.295 33.201 -52.731 -15.624 -48.825 5.859 -111.321 62.496 3.906 113.274 42.966 97.65 -25.389 203.112 -1.953 13.671 -9.765 41.989 -24.413t71.285 -16.601q7.812 21.483 10.742 50.778t-2.929 54.684q44.919 46.872 46.872 124.992 0 62.496 -21.483 103.509t-76.167 68.355q-37.107 17.577 -97.65 21.483 27.342 13.671 40.037 28.319t16.601 45.895l0 61.52t1.953 59.567q5.859 9.765 13.671 16.601t13.671 9.765 3.906 8.789 -15.624 5.859q-33.201 0 -52.731 -23.436 -5.859 -9.765 -5.859 -23.436l0 -93.744q0 -15.624 -7.812 -22.46t-15.624 -8.789l0 123.039q0 33.201 7.812 42.966t9.765 19.53q1.953 1.953 -2.929 2.929t-16.601 -2.929q-25.389 -5.859 -35.154 -26.366t-9.765 -43.943l0 -121.086l-25.389 0l0 121.086q0 23.436 -9.765 44.919 -13.671 27.342 -50.778 29.295 -5.859 -1.953 -5.859 -3.906 1.953 -1.953 11.718 -19.53 1.953 -3.906 4.883 -15.624t2.929 -27.342l0 -123.039q-7.812 1.953 -14.648 8.789t-6.836 22.46l0 93.744q0 13.671 -5.859 23.436 -17.577 23.436 -52.731 23.436 -13.671 0 -15.624 -5.859 -1.953 -3.906 .977 -6.836t8.789 -6.836 7.812 -5.859q7.812 -5.859 11.718 -15.624 5.859 -7.812 2.929 -41.013t-.977 -42.966q-50.778 17.577 -103.509 -17.577 -15.624 -15.624 -31.248 -44.919 -11.718 -21.483 -46.872 -50.778z"
     id="path3051"
     style="filter:url(#filter3059)" />
</svg>
