<?xml version="1.0" encoding="UTF-8" standalone="no"?>
<svg
   xmlns:dc="http://purl.org/dc/elements/1.1/"
   xmlns:cc="http://creativecommons.org/ns#"
   xmlns:rdf="http://www.w3.org/1999/02/22-rdf-syntax-ns#"
   xmlns:svg="http://www.w3.org/2000/svg"
   xmlns="http://www.w3.org/2000/svg"
   xmlns:sodipodi="http://sodipodi.sourceforge.net/DTD/sodipodi-0.dtd"
   xmlns:inkscape="http://www.inkscape.org/namespaces/inkscape"
   height="50"
   width="50"
   id="svg2"
   version="1.1"
   inkscape:version="0.48.3.1 r9886"
   sodipodi:docname="github1.svg">
  <metadata
     id="metadata10">
    <rdf:RDF>
      <cc:Work
         rdf:about="">
        <dc:format>image/svg+xml</dc:format>
        <dc:type
           rdf:resource="http://purl.org/dc/dcmitype/StillImage" />
        <dc:title></dc:title>
      </cc:Work>
    </rdf:RDF>
  </metadata>
  <defs
     id="defs8">
    <filter
       id="filter2982"
       inkscape:label="Invert"
       x="0"
       y="0"
       width="1"
       height="1"
       inkscape:menu="Color"
       inkscape:menu-tooltip="Invert colors"
       color-interpolation-filters="sRGB">
      <feColorMatrix
         id="feColorMatrix2984"
         type="saturate"
         values="1"
         result="fbSourceGraphic" />
      <feColorMatrix
         id="feColorMatrix2986"
         in="fbSourceGraphic"
         values="-1 0 0 0 1 0 -1 0 0 1 0 0 -1 0 1 0 0 0 1 0 " />
    </filter>
  </defs>
  <sodipodi:namedview
     pagecolor="#ffffff"
     bordercolor="#666666"
     borderopacity="1"
     objecttolerance="10"
     gridtolerance="10"
     guidetolerance="10"
     inkscape:pageopacity="0"
     inkscape:pageshadow="2"
     inkscape:window-width="722"
     inkscape:window-height="480"
     id="namedview6"
     showgrid="false"
     fit-margin-top="0"
     fit-margin-left="0"
     fit-margin-right="0"
     fit-margin-bottom="0"
     inkscape:zoom="2.6700352"
     inkscape:cx="43.372453"
     inkscape:cy="30.094181"
     inkscape:window-x="0"
     inkscape:window-y="0"
     inkscape:window-maximized="0"
     inkscape:current-layer="svg2" />
  <path
     d="M 0,25 Q 0,14.64844 7.324216,7.324216 14.64844,0 25,0 35.35156,0 42.675784,7.324216 50,14.64844 50,25 50,35.35156 42.675784,42.675784 35.35156,50 25,50 14.64844,50 7.324216,42.675784 0,35.35156 0,25 z m 2.734376,0 q 0,9.179688 6.542968,15.722656 6.542968,6.542968 15.722656,6.542968 9.179688,0 15.722656,-6.542968 Q 47.265624,34.179688 47.265624,25 q 0,-9.179688 -6.542968,-15.722656 Q 34.179688,2.734376 25,2.734376 q -9.179688,0 -15.722656,6.542968 Q 2.734376,15.820312 2.734376,25 z m 7.031248,5.371096 q -0.195312,-0.195312 0,-0.390624 0.390624,-0.390632 0.97656,-0.292968 0.585944,0.09766 0.6836,0.195312 0.683592,0.292968 1.513648,1.318384 0.830048,1.025416 1.318384,1.41604 2.343744,1.95312 4.785152,0.292968 0.195312,-0.683592 0.634744,-1.17188 0.439424,-0.48828 0.830104,-0.683592 0.390672,-0.195312 1.367184,-0.585936 -3.222656,-0.292968 -5.224632,-1.123072 -2.001984,-0.830104 -3.173856,-2.099584 -1.562496,-1.757816 -1.90432,-4.58984 -0.341824,-2.832032 0.43948,-5.175784 0.585936,-1.464848 1.660152,-2.63672 -0.781248,-2.441408 0.292968,-5.566408 3.125,0.195312 5.664064,2.14844 4.882816,-1.269528 10.156248,-0.09766 0.683592,-0.48828 2.099584,-1.220728 1.415992,-0.732448 3.56448,-0.830104 0.390624,1.074216 0.537136,2.539064 0.146512,1.46484 -0.146464,2.734376 2.246096,2.343744 2.343752,6.25 0,3.125 -1.074216,5.175776 -1.074216,2.050784 -3.808592,3.417968 -1.855472,0.878912 -4.882816,1.074224 1.367192,0.683592 2.001976,1.41604 0.634792,0.732448 0.830104,2.294896 l 0,3.0762 q 0,0 0.09766,2.978536 0.292968,0.48828 0.6836,0.830104 0.390624,0.341824 0.683592,0.48828 0.292968,0.146464 0.195312,0.43948 -0.09766,0.293016 -0.781248,0.292968 -1.66016,0 -2.63672,-1.171872 -0.292968,-0.48828 -0.292968,-1.17188 l 0,-4.687496 q 0,-0.781248 -0.390632,-1.123072 -0.390624,-0.341824 -0.781248,-0.43948 l 0,6.152344 q 0,1.66016 0.390624,2.14844 0.390624,0.48828 0.488288,0.97656 0.09766,0.09766 -0.146464,0.146456 -0.244112,0.0488 -0.830104,-0.146456 -1.269532,-0.292964 -1.757812,-1.31838 Q 25.68364,40.625 25.68364,39.453128 l 0,-6.054688 -1.269528,0 0,6.054688 q 0,1.171872 -0.48828,2.246088 -0.683592,1.367192 -2.539064,1.464848 -0.292968,-0.09766 -0.292968,-0.195312 0.09766,-0.09766 0.585936,-0.976568 0.09766,-0.195312 0.244168,-0.781248 0.146512,-0.585936 0.146456,-1.367184 l 0,-6.152344 q -0.390624,0.09766 -0.732448,0.43948 -0.341816,0.341816 -0.341816,1.123072 l 0,4.687496 q 0,0.683592 -0.292968,1.171872 -0.878912,1.17188 -2.63672,1.17188 -0.683592,0 -0.781248,-0.292968 -0.09766,-0.195312 0.04888,-0.341824 0.146512,-0.146512 0.43948,-0.341824 0.292968,-0.195312 0.390624,-0.292968 0.390624,-0.292968 0.585936,-0.781248 0.292968,-0.390624 0.146464,-2.050784 Q 18.750032,36.52344 18.847664,36.03516 16.3086,36.914064 13.67188,35.156248 12.890632,34.375 12.109384,32.91016 11.523448,31.835936 9.765632,30.371096 z"
     id="path4"
     inkscape:connector-curvature="0"
     style="filter:url(#filter2982)" />
</svg>
